<svg xmlns="http://www.w3.org/2000/svg" xmlns:svg="http://www.w3.org/2000/svg" id="svg5" width="154.243" height="39.281" version="1.1" viewBox="0 0 40.81 10.393"><g id="layer1" transform="translate(-90.438365,-136.96404)"><path style="fill:#000;stroke-width:1.02388" id="path21"/><path style="fill:#000;stroke-width:.271737" id="path3317"/><g id="g880" transform="matrix(0.56975915,0,0,0.56975915,63.360109,62.438369)"><g id="g842" transform="matrix(0.79495203,0,0,0.79495203,13.79033,28.860894)"><rect style="fill:#f08a8d;fill-opacity:1;stroke-width:.0478859" id="rect5331-6-3-1-7" width="10.522" height="2.948" x="-146.489" y="70.556" transform="matrix(-0.87679283,-0.48086831,0,1,0,0)"/><rect style="fill:#f08a8d;fill-opacity:1;stroke-width:.0478859" id="rect5331-6-3-1" width="10.522" height="2.948" x="-146.489" y="65.439" transform="matrix(-0.87679283,-0.48086831,0,1,0,0)"/><rect style="fill:#ec7c80;fill-opacity:1;stroke-width:.0478841" id="rect5331-6-4" width="10.561" height="2.967" x="135.931" y="206.329" transform="matrix(0.87677457,-0.48090161,0,1,0,0)"/><rect style="fill:#f08a8d;fill-opacity:1;stroke-width:.0478859" id="rect5331-6-3-1-3" width="10.562" height="2.967" x="-135.928" y="75.596" transform="matrix(-0.87679283,-0.48086831,0,1,0,0)"/><rect style="fill:#ec7c80;fill-opacity:1;stroke-width:.0479552" id="rect5331-6-3" width="10.592" height="2.967" x="125.256" y="195.939" transform="matrix(0.87755288,-0.47947986,0,1,0,0)"/><rect style="fill:#ec7c80;fill-opacity:1;stroke-width:.0478841" id="rect5331-6-4-9" width="10.561" height="2.967" x="135.931" y="211.446" transform="matrix(0.87677457,-0.48090161,0,1,0,0)"/><rect style="fill:#f08a8d;fill-opacity:1;stroke-width:.0478859" id="rect5331-6-3-1-3-1" width="10.562" height="2.967" x="-135.928" y="80.713" transform="matrix(-0.87679283,-0.48086831,0,1,0,0)"/><rect style="fill:#ec7c80;fill-opacity:1;stroke-width:.0479552" id="rect5331-6-3-2" width="10.592" height="2.967" x="125.256" y="201.055" transform="matrix(0.87755288,-0.47947986,0,1,0,0)"/></g><text style="font-size:12.9405px;line-height:1.25;font-family:Arial;-inkscape-font-specification:Arial;fill:#ec7c80;fill-opacity:1;stroke-width:.323512" id="text6662" x="50.63" y="144.88" xml:space="preserve"><tspan id="tspan6660" x="50.63" y="144.88" style="font-style:normal;font-variant:normal;font-weight:700;font-stretch:normal;font-family:Arial;-inkscape-font-specification:'Arial Bold';fill:#ec7c80;fill-opacity:1;stroke-width:.323512">ERROR</tspan></text></g></g></svg>