<svg xmlns="http://www.w3.org/2000/svg" width="210mm" height="50mm" viewBox="0 0 210 50" xml:space="preserve" style="shape-rendering:geometricPrecision;text-rendering:geometricPrecision;image-rendering:optimizeQuality;fill-rule:evenodd;clip-rule:evenodd"><defs><style type="text/css">.fil0{fill:#099}</style></defs><g id="Ebene_x0020_1"><metadata id="CorelCorpID_0Corel-Layer"/><path d="M200.121 10.3466l0 5.8289c-3.0198,-1.14 -5.7084,-1.7164 -8.0615,-1.7164 -1.3938,0 -2.5037,0.2581 -3.3382,0.7571 -0.8346,0.5033 -1.2605,1.1228 -1.2605,1.8541 0,0.9722 0.9421,1.8368 2.8392,2.6112l5.4805 2.6671c4.4309,2.1122 6.6291,4.9169 6.6291,8.4401 0,2.9295 -1.1658,5.2654 -3.5189,6.9947 -2.3359,1.7466 -5.4805,2.6112 -9.3951,2.6112 -1.8068,0 -3.4285,-0.0774 -4.8696,-0.2409 -1.4411,-0.1548 -3.0973,-0.4732 -4.9342,-0.9292l0 -6.0999c3.3683,1.14 6.4355,1.7164 9.1972,1.7164 3.2952,0 4.9342,-0.955 4.9342,-2.8822 0,-0.9593 -0.6711,-1.7336 -2.0347,-2.3402l-6.0871 -2.594c-2.2455,-1.0152 -3.9146,-2.2455 -5.0073,-3.7038 -1.0754,-1.4712 -1.6218,-3.1575 -1.6218,-5.0847 0,-2.6973 1.1357,-4.8697 3.3812,-6.5216 2.2628,-1.639 5.2655,-2.4606 8.9994,-2.4606 1.2131,0 2.6112,0.1075 4.1599,0.3054 1.5615,0.2108 3.0628,0.4689 4.5082,0.7873z" class="fil0"/><path d="M27.7222 10.3466l0 5.8289c-3.0199,-1.14 -5.7042,-1.7164 -8.0573,-1.7164 -1.3981,0 -2.5036,0.2581 -3.3382,0.7571 -0.8345,0.5033 -1.2604,1.1228 -1.2604,1.8541 0,0.9722 0.955,1.8368 2.8521,2.6112l5.4805 2.6671c4.4136,2.1122 6.6162,4.9169 6.6162,8.4401 0,2.9295 -1.1701,5.2654 -3.506,6.9947 -2.3531,1.7466 -5.4805,2.6112 -9.408,2.6112 -1.8068,0 -3.4329,-0.0774 -4.874,-0.2409 -1.4411,-0.1548 -3.0801,-0.4732 -4.9298,-0.9292l0 -6.0999c3.3812,1.14 6.4484,1.7164 9.1929,1.7164 3.2952,0 4.9342,-0.955 4.9342,-2.8822 0,-0.9593 -0.6668,-1.7336 -2.0176,-2.3402l-6.087 -2.594c-2.2628,-1.0152 -3.9319,-2.2455 -5.0073,-3.7038 -1.0927,-1.4712 -1.6261,-3.1575 -1.6261,-5.0847 0,-2.6973 1.1271,-4.8697 3.3855,-6.5216 2.2456,-1.639 5.2525,-2.4606 8.9865,-2.4606 1.226,0 2.6069,0.1075 4.1727,0.3054 1.5487,0.2108 3.05,0.4689 4.4911,0.7873z" class="fil0"/><polygon points="34.003 9.8 42.929 9.8 42.929 39.848 34.003 39.848" class="fil0"/><polygon points="71.687 9.8 71.687 15.354 58.424 15.354 58.424 22.017 69.927 22.017 69.927 27.025 58.424 27.025 58.424 34.019 71.958 34.019 71.958 39.848 49.834 39.848 49.834 9.8" class="fil0"/><polygon points="113.358 9.8 113.358 39.848 105.025 39.848 105.025 20.03 96.379 40.124 91.234 40.124 82.919 20.03 82.919 39.848 76.892 39.848 76.892 9.8 87.788 9.8 95.226 28.195 103.008 9.8" class="fil0"/><polygon points="142.103 9.8 142.103 15.354 128.913 15.354 128.913 22.017 140.416 22.017 140.416 27.025 128.913 27.025 128.913 34.019 142.374 34.019 142.374 39.848 120.25 39.848 120.25 9.8" class="fil0"/><polygon points="173.424 9.8 173.424 39.848 163.956 39.848 153.331 20.576 153.331 39.848 147.308 39.848 147.308 9.8 157.052 9.8 167.402 28.741 167.402 9.8" class="fil0"/></g></svg>